<?xml version="1.0" ?><svg height="612" id="svg2947" version="1.0" width="612" xmlns="http://www.w3.org/2000/svg" xmlns:cc="http://creativecommons.org/ns#" xmlns:dc="http://purl.org/dc/elements/1.1/" xmlns:inkscape="http://www.inkscape.org/namespaces/inkscape" xmlns:rdf="http://www.w3.org/1999/02/22-rdf-syntax-ns#" xmlns:sodipodi="http://sodipodi.sourceforge.net/DTD/sodipodi-0.dtd" xmlns:svg="http://www.w3.org/2000/svg"><defs id="defs2949"><marker id="ArrowEnd" markerHeight="3" markerUnits="strokeWidth" markerWidth="4" orient="auto" refX="0" refY="5" viewBox="0 0 10 10"><path d="M 0,0 L 10,5 L 0,10 L 0,0 z" id="path2952"/></marker><marker id="ArrowStart" markerHeight="3" markerUnits="strokeWidth" markerWidth="4" orient="auto" refX="10" refY="5" viewBox="0 0 10 10"><path d="M 10,0 L 0,5 L 10,10 L 10,0 z" id="path2955"/></marker></defs><path d="M 82.3499,17.338506 C 41.0149,17.338506 17.7789,38.709506 17.7789,82.374506 L 17.7789,532.49661 C 17.7789,573.33961 38.6699,594.72461 79.9709,594.72461 L 531.9951,594.72461 C 573.2981,594.72461 594.2211,574.40461 594.2211,532.49661 L 594.2211,82.374506 C 594.2211,39.774506 573.2981,17.338506 530.6981,17.338506 C 530.6981,17.338506 82.2069,17.196506 82.3499,17.338506 z" id="path2959" style="fill:#000000;stroke:#000000;stroke-width:3.40799999"/><g id="g2961" transform="translate(-8.19e-2,-0.5853944)"><g id="g2963"><path d="M 306.082,528.487 C 427.441,528.487 525.826,429.117 525.826,306.546 C 525.826,183.974 427.441,84.6051 306.082,84.6051 C 184.724,84.6051 86.3368,183.974 86.3368,306.546 C 86.3368,429.117 184.724,528.487 306.082,528.487 z" id="path2965" style="fill:#ffffff;stroke:none"/><path d="" id="path2967" style="fill:#ffffff;stroke:none"/></g><g id="g2969"><path d="M 306.082,477.321 C 399.465,477.321 475.168,400.862 475.168,306.546 C 475.168,212.229 399.465,135.771 306.082,135.771 C 212.7,135.771 136.997,212.229 136.997,306.546 C 136.997,400.862 212.7,477.321 306.082,477.321 z" id="path2971" style="fill:#000000;stroke:none"/><path d="" id="path2973" style="fill:#000000;stroke:none"/></g><g id="g2975"><path d="M 283.301,384.88 L 332.832,384.779 L 332.832,346.296 C 332.832,335.858 337.698,325.997 350.717,317.456 C 363.736,308.918 400.082,291.594 400.082,246.046 C 400.082,200.497 361.915,169.188 329.832,162.546 C 297.753,155.903 262.997,160.274 238.332,187.296 C 216.244,211.494 211.59,230.633 211.59,272.861 L 261.082,272.861 L 261.082,263.046 C 261.082,240.545 263.684,216.792 295.832,210.296 C 313.377,206.751 329.826,212.254 339.582,221.796 C 350.741,232.709 350.832,257.296 333.049,269.539 L 305.152,288.518 C 288.88,298.957 283.301,310.577 283.301,327.658 L 283.301,384.88 z" id="path2977" style="fill:#ffffff;stroke:none"/><g id="g2979"><path d="M 282.975,455.299 L 282.975,404.293 L 333.188,404.293 L 333.188,455.299 L 282.975,455.299 z" id="path2981" style="fill:#ffffff;stroke:none"/><path d="" id="path2983" style="fill:#ffffff;stroke:none"/></g></g></g></svg>